<mxfile host="65bd71144e">
    <diagram id="wX0M2i4DLkPoQWqwpA1D" name="Page-1">
        <mxGraphModel dx="674" dy="405" grid="1" gridSize="10" guides="1" tooltips="1" connect="1" arrows="1" fold="1" page="1" pageScale="1" pageWidth="850" pageHeight="1100" background="#ffffff" math="0" shadow="0">
            <root>
                <mxCell id="0"/>
                <mxCell id="1" parent="0"/>
                <mxCell id="3" value="BLE Central Device" style="rounded=1;whiteSpace=wrap;html=1;fillColor=#0050ef;strokeColor=#001DBC;fontColor=#ffffff;sketch=0;glass=0;shadow=1;" parent="1" vertex="1">
                    <mxGeometry x="460" y="30" width="120" height="170" as="geometry"/>
                </mxCell>
                <mxCell id="27" value="" style="shape=singleArrow;whiteSpace=wrap;html=1;fillColor=#60a917;strokeColor=#2D7600;fontColor=#ffffff;" vertex="1" parent="1">
                    <mxGeometry x="180" y="85" width="280" height="60" as="geometry"/>
                </mxCell>
                <mxCell id="2" value="nRF52840&lt;br&gt;&lt;br&gt;BLE Peripheral" style="rounded=1;whiteSpace=wrap;html=1;fillColor=#0050ef;strokeColor=#001DBC;fontColor=#ffffff;shadow=1;" parent="1" vertex="1">
                    <mxGeometry x="60" y="30" width="120" height="170" as="geometry"/>
                </mxCell>
                <mxCell id="12" value="" style="shape=doubleArrow;whiteSpace=wrap;html=1;direction=south;fillColor=#60a917;strokeColor=#2D7600;fontColor=#ffffff;" parent="1" vertex="1">
                    <mxGeometry x="100" y="200" width="40" height="50" as="geometry"/>
                </mxCell>
                <mxCell id="15" value="BMP180" style="rounded=1;whiteSpace=wrap;html=1;fillColor=#f0a30a;strokeColor=#BD7000;shadow=1;fontColor=#FFFFFF;" parent="1" vertex="1">
                    <mxGeometry x="60" y="250" width="120" height="60" as="geometry"/>
                </mxCell>
                <mxCell id="16" value="I2C" style="text;html=1;strokeColor=none;fillColor=none;align=center;verticalAlign=middle;whiteSpace=wrap;rounded=0;labelBorderColor=none;labelBackgroundColor=none;fontStyle=1;fontColor=#FF0000;fontSize=13;" parent="1" vertex="1">
                    <mxGeometry x="130" y="215" width="40" height="20" as="geometry"/>
                </mxCell>
                <mxCell id="11" value="BLE Notification" style="text;html=1;align=center;verticalAlign=middle;whiteSpace=wrap;rounded=0;fillColor=none;" parent="1" vertex="1">
                    <mxGeometry x="285" y="105" width="90" height="20" as="geometry"/>
                </mxCell>
                <mxCell id="28" value="&lt;font color=&quot;#ff0000&quot;&gt;Temperature/Pressure Data&lt;/font&gt;" style="text;html=1;strokeColor=none;align=center;verticalAlign=middle;whiteSpace=wrap;rounded=0;" vertex="1" parent="1">
                    <mxGeometry x="225" y="125" width="155" height="20" as="geometry"/>
                </mxCell>
                <mxCell id="29" value="" style="shape=singleArrow;whiteSpace=wrap;html=1;fillColor=#60a917;strokeColor=#2D7600;fontColor=#ffffff;rotation=-180;" vertex="1" parent="1">
                    <mxGeometry x="180" y="30" width="280" height="60" as="geometry"/>
                </mxCell>
                <mxCell id="30" value="Enable Notifications" style="text;html=1;align=center;verticalAlign=middle;whiteSpace=wrap;rounded=0;fillColor=none;" vertex="1" parent="1">
                    <mxGeometry x="270" y="50" width="120" height="20" as="geometry"/>
                </mxCell>
                <mxCell id="31" value="&lt;font color=&quot;#ff0000&quot;&gt;Request Pressure/Temperature Reading&lt;/font&gt;" style="text;html=1;strokeColor=none;align=center;verticalAlign=middle;whiteSpace=wrap;rounded=0;" vertex="1" parent="1">
                    <mxGeometry x="260" y="200" width="175" height="20" as="geometry"/>
                </mxCell>
                <mxCell id="33" style="edgeStyle=orthogonalEdgeStyle;rounded=0;orthogonalLoop=1;jettySize=auto;html=1;exitX=0.5;exitY=1;exitDx=0;exitDy=0;" edge="1" parent="1" source="11" target="11">
                    <mxGeometry relative="1" as="geometry"/>
                </mxCell>
                <mxCell id="36" value="" style="shape=singleArrow;whiteSpace=wrap;html=1;fillColor=#60a917;strokeColor=#2D7600;fontColor=#ffffff;rotation=-180;" vertex="1" parent="1">
                    <mxGeometry x="180" y="150" width="280" height="60" as="geometry"/>
                </mxCell>
                <mxCell id="37" value="BLE Write" style="text;html=1;align=center;verticalAlign=middle;whiteSpace=wrap;rounded=0;fillColor=none;" vertex="1" parent="1">
                    <mxGeometry x="270" y="170" width="120" height="20" as="geometry"/>
                </mxCell>
            </root>
        </mxGraphModel>
    </diagram>
</mxfile>